After being betrayed by the organization who hired him, an ex-Federale launches a brutal rampage of revenge against his former boss. 


Directors: Ethan Maniquis, Robert Rodriguez
Writers: Robert Rodriguez, Álvaro Rodríguez
Stars:Danny Trejo, Michelle Rodriguez and Robert De Niro 

Media info:

eneral
Complete name                    : D:\utorrent\torrentcompleet\Machete.BluRay rip.mkv. 1080p AVC DTS 5.1.ACB-Team\Machete.BluRay rip.mkv. 1080p AVC DTS 5.1.ACB-Team.mkv
Format                           : Matroska
File size                        : 9.59 GiB
Duration                         : 1h 44mn
Overall bit rate                 : 13.1 Mbps
Movie name                       : movie
Encoded date                     : UTC 2011-03-09 22:11:35
Writing application              : mkvmerge v3.2.0 ('Beginnings') built on Feb 12 2010 16:46:17
Writing library                  : libebml v0.7.9 + libmatroska v0.8.1

Video
ID                               : 1
Format                           : AVC
Format/Info                      : Advanced Video Codec
Format profile                   : High@L4.1
Format settings, CABAC           : Yes
Format settings, ReFrames        : 3 frames
Muxing mode                      : Container profile=Unknown@0.0
Codec ID                         : V_MPEG4/ISO/AVC
Duration                         : 1h 44mn
Bit rate mode                    : Variable
Bit rate                         : 11.7 Mbps
Maximum bit rate                 : 35.0 Mbps
Width                            : 1 920 pixels
Height                           : 1 080 pixels
Display aspect ratio             : 16:9
Frame rate                       : 23.976 fps
Color space                      : YUV
Chroma subsampling               : 4:2:0
Bit depth                        : 8 bits
Scan type                        : Progressive
Bits/(Pixel*Frame)               : 0.236
Stream size                      : 8.29 GiB (86%)
Writing library                  : x264 core 114 r1900 60ef1f8
Encoding settings                : cabac=1 / ref=1 / deblock=1:0:0 / analyse=0x3:0x3 / me=dia / subme=1 / psy=1 / psy_rd=0.00:0.00 / mixed_ref=0 / me_range=16 / chroma_me=1 / trellis=0 / 8x8dct=1 / cqm=0 / deadzone=21,11 / fast_pskip=1 / chroma_qp_offset=0 / threads=3 / sliced_threads=0 / slices=4 / nr=0 / decimate=1 / interlaced=0 / constrained_intra=0 / bframes=3 / b_pyramid=1 / b_adapt=1 / b_bias=0 / direct=1 / weightb=1 / open_gop=0 / weightp=1 / keyint=24 / keyint_min=1 / scenecut=40 / intra_refresh=0 / rc_lookahead=0 / rc=abr / mbtree=0 / bitrate=11743 / ratetol=1.0 / qcomp=0.60 / qpmin=0 / qpmax=69 / qpstep=4 / vbv_maxrate=35000 / vbv_bufsize=30000 / nal_hrd=vbr / ip_ratio=1.10 / pb_ratio=1.10 / aq=1:1.00

Audio
ID                               : 2
Format                           : DTS
Format/Info                      : Digital Theater Systems
Codec ID                         : A_DTS
Duration                         : 1h 44mn
Bit rate mode                    : Constant
Bit rate                         : 1 510 Kbps
Channel(s)                       : 6 channels
Channel positions                : Front: L C R, Side: L R, LFE
Sampling rate                    : 48.0 KHz
Bit depth                        : 24 bits
Stream size                      : 1.11 GiB (12%)
Language                         : English

Text
ID                               : 3
Format                           : UTF-8
Codec ID                         : S_TEXT/UTF8
Codec ID/Info                    : UTF-8 Plain Text
Language                         : Dutch

Menu
00:00:00.000                     : en:00:00:00.000
00:07:35.454                     : en:00:07:35.454
00:12:31.542                     : en:00:12:31.542
00:20:37.027                     : en:00:20:37.027
00:26:08.984                     : en:00:26:08.984
00:33:00.019                     : en:00:33:00.019
00:37:46.138                     : en:00:37:46.138
00:44:04.475                     : en:00:44:04.475
00:50:45.459                     : en:00:50:45.459
00:56:23.963                     : en:00:56:23.963
01:02:41.048                     : en:01:02:41.048
01:09:45.014                     : en:01:09:45.014
01:14:56.700                     : en:01:14:56.700
01:21:30.135                     : en:01:21:30.135
01:27:05.261                     : en:01:27:05.261
01:33:49.040                     : en:01:33:49.040

